<mxfile host="app.diagrams.net" agent="Mozilla/5.0 (X11; Linux x86_64) AppleWebKit/537.36 (KHTML, like Gecko) Chrome/132.0.0.0 Safari/537.36" version="26.0.10">
  <diagram name="Page-1" id="AEsDcIwTpLiF_haFYwOt">
    <mxGraphModel dx="830" dy="553" grid="1" gridSize="10" guides="1" tooltips="1" connect="1" arrows="1" fold="1" page="1" pageScale="1" pageWidth="1100" pageHeight="850" math="0" shadow="0">
      <root>
        <mxCell id="0" />
        <mxCell id="1" parent="0" />
        <mxCell id="65Yv2bHratZV931YRDcX-1" value="Cloud&#xa;Storage" style="sketch=0;html=1;verticalAlign=top;labelPosition=center;verticalLabelPosition=bottom;align=center;spacingTop=-6;fontSize=11;fontStyle=1;fontColor=#999999;shape=image;aspect=fixed;imageAspect=0;image=data:image/svg+xml,PHN2ZyB4bWxucz0iaHR0cDovL3d3dy53My5vcmcvMjAwMC9zdmciIHhtbG5zOnY9Imh0dHBzOi8vdmVjdGEuaW8vbmFubyIgd2lkdGg9IjIwIiBoZWlnaHQ9IjE2IiB2aWV3Qm94PSIwIDAgMjAgMTYiPiYjeGE7CTxzdHlsZSB0eXBlPSJ0ZXh0L2NzcyI+JiN4YTsJLnN0MHtmaWxsOiM0Mjg1ZjQ7fSYjeGE7CS5zdDF7ZmlsbDojNjY5ZGY2O30mI3hhOwkuc3Qye2ZpbGw6I2FlY2JmYTt9JiN4YTsJLnN0M3tmaWxsOiNmZmY7fSYjeGE7CTwvc3R5bGU+JiN4YTsJPHBhdGggY2xhc3M9InN0MiIgZD0iTTAgMGgyMHY3SDB6Ii8+JiN4YTsJPHBhdGggY2xhc3M9InN0MSIgZD0iTTE4IDBoMnY3aC0yeiIvPiYjeGE7CTxwYXRoIGNsYXNzPSJzdDAiIGQ9Ik0xOCA3bDItN2gtMnoiLz4mI3hhOwk8cGF0aCBjbGFzcz0ic3QxIiBkPSJNMCAwaDJ2N0gweiIvPiYjeGE7CTxnIGNsYXNzPSJzdDMiPiYjeGE7CQk8cGF0aCBkPSJNNCAzaDZ2MUg0eiIvPiYjeGE7CQk8cmVjdCB4PSIxMyIgeT0iMiIgd2lkdGg9IjMiIGhlaWdodD0iMyIgcng9IjEuNSIvPiYjeGE7CTwvZz4mI3hhOwk8cGF0aCBjbGFzcz0ic3QyIiBkPSJNMCA5aDIwdjdIMHoiLz4mI3hhOwk8cGF0aCBjbGFzcz0ic3QxIiBkPSJNMTggOWgydjdoLTJ6Ii8+JiN4YTsJPHBhdGggY2xhc3M9InN0MCIgZD0iTTE4IDE2bDItN2gtMnoiLz4mI3hhOwk8cGF0aCBjbGFzcz0ic3QxIiBkPSJNMCA5aDJ2N0gweiIvPiYjeGE7CTxnIGNsYXNzPSJzdDMiPiYjeGE7CQk8cGF0aCBkPSJNNCAxMmg2djFINHoiLz4mI3hhOwkJPHJlY3QgeD0iMTMiIHk9IjExIiB3aWR0aD0iMyIgaGVpZ2h0PSIzIiByeD0iMS41Ii8+JiN4YTsJPC9nPiYjeGE7PC9zdmc+;" vertex="1" parent="1">
          <mxGeometry x="750" y="10" width="86.47" height="70" as="geometry" />
        </mxCell>
        <mxCell id="65Yv2bHratZV931YRDcX-2" value="Vertex AI" style="sketch=0;html=1;verticalAlign=top;labelPosition=center;verticalLabelPosition=bottom;align=center;spacingTop=-6;fontSize=11;fontStyle=1;fontColor=#999999;shape=image;aspect=fixed;imageAspect=0;image=data:image/svg+xml,PHN2ZyB4bWxucz0iaHR0cDovL3d3dy53My5vcmcvMjAwMC9zdmciIGlkPSJzdmc1IiB2ZXJzaW9uPSIxLjEiIHZpZXdCb3g9IjAgMCAyMzkuNzA4MjUgMjc0Ljg2MzI4IiBoZWlnaHQ9IjI3NC44NjMyOG1tIiB3aWR0aD0iMjM5LjcwODI1bW0iPiYjeGE7ICAmI3hhOyAgPGRlZnMgaWQ9ImRlZnMyIi8+JiN4YTsgIDxnIHRyYW5zZm9ybT0idHJhbnNsYXRlKC02Ni42ODYzNjEsNjAuMjU5NzY2KSIgaWQ9ImxheWVyMSI+JiN4YTsgICAgPGcgc3R5bGU9Im9wYWNpdHk6MC45OSIgaWQ9InBhdGg4NjkiLz4mI3hhOyAgICA8ZyBzdHlsZT0ib3BhY2l0eTowLjk5IiBpZD0icGF0aDg2OS0yIi8+JiN4YTsgICAgPGcgc3R5bGU9Im9wYWNpdHk6MC45OSIgaWQ9InBhdGg4NjktMyIvPiYjeGE7ICAgIDxnIHN0eWxlPSJvcGFjaXR5OjAuOTkiIGlkPSJwYXRoODY5LTEiLz4mI3hhOyAgICA8ZyBzdHlsZT0ib3BhY2l0eTowLjk5IiBpZD0icGF0aDg2OS04Ii8+JiN4YTsgICAgPGcgc3R5bGU9Im9wYWNpdHk6MC45OSIgaWQ9InBhdGg4NzEiPiYjeGE7ICAgICAgPHBhdGggaWQ9InBhdGgzMzU3IiBkPSJtIDc3LjE4Njc3NSwxMTAuODgyNTIgOTQuMjM5Njk1LDY5Ljc0NTc1IiBzdHlsZT0iY29sb3I6IzAwMDAwMDtmaWxsOiMwMDgwMDA7c3Ryb2tlLXdpZHRoOjIxO3N0cm9rZS1saW5lY2FwOnJvdW5kOy1pbmtzY2FwZS1zdHJva2U6bm9uZSIvPiYjeGE7ICAgIDwvZz4mI3hhOyAgICA8ZyBzdHlsZT0ib3BhY2l0eTowLjk5IiBpZD0icGF0aDg3MyIvPiYjeGE7ICAgIDxwYXRoIGQ9Im0gMTUzLjA4MTIsMTA5LjAzNTY4IGMgMCw2LjEyMDQ3IC00Ljk2MTYyLDExLjA4MjA5IC0xMS4wODIwOSwxMS4wODIwOSAtNi4xMjA0NywwIC0xMS4wODIwOCwtNC45NjE2MiAtMTEuMDgyMDgsLTExLjA4MjA5IDAsLTYuMTIwNDYgNC45NjE2MiwtMTEuMDgyMDgyIDExLjA4MjA4LC0xMS4wODIwODcgNi4xMjA0NywtMTBlLTcgMTEuMDgyMDksNC45NjE2MTcgMTEuMDgyMDksMTEuMDgyMDg3IHogbSAwLC05Mi41MTMzODEgYyAwLDYuMTIwNDY5IC00Ljk2MTYyLDExLjA4MjA5IC0xMS4wODIwOSwxMS4wODIwODkgLTYuMTIwNDcsLTVlLTYgLTExLjA4MjA4LC00Ljk2MTYyNCAtMTEuMDgyMDgsLTExLjA4MjA4OSAwLC02LjEyMDQ2NSA0Ljk2MTYxLC0xMS4wODIwODQ2IDExLjA4MjA4LC0xMS4wODIwODk2IDYuMTIwNDcsLTZlLTcgMTEuMDgyMDksNC45NjE2MjA2IDExLjA4MjA5LDExLjA4MjA4OTYgeiBtIDAsLTMyLjkyMTY4MyBjIDAsNi4xMjA0NjkgLTQuOTYxNjIsMTEuMDgyMDkwNSAtMTEuMDgyMDksMTEuMDgyMDg5OSAtNi4xMjA0NywtNWUtNiAtMTEuMDgyMDgsLTQuOTYxNjIzOSAtMTEuMDgyMDgsLTExLjA4MjA4OTkgMCwtNi4xMjA0NjUgNC45NjE2MSwtMTEuMDgyMDg0IDExLjA4MjA4LC0xMS4wODIwODkgNi4xMjA0NywtMTBlLTcgMTEuMDgyMDksNC45NjE2MiAxMS4wODIwOSwxMS4wODIwODkgeiBNIDEwOC43NDE4MSw3Ni43MTgwMSBjIDAsNi4xMjA0NjkgLTQuOTYxNjIsMTEuMDgyMDg5IC0xMS4wODIwODksMTEuMDgyMDg5IC02LjEyMDQ2OSwwIC0xMS4wODIwODksLTQuOTYxNjIgLTExLjA4MjA4OSwtMTEuMDgyMDg5IDAsLTYuMTIwNDY5IDQuOTYxNjIsLTExLjA4MjA4OSAxMS4wODIwODksLTExLjA4MjA4OSA2LjEyMDQ2OSwwIDExLjA4MjA4OSw0Ljk2MTYyIDExLjA4MjA4OSwxMS4wODIwODkgeiBtIDAsLTMyLjY4MDYyNiBjIDAsNi4xMjA0NjkgLTQuOTYxNjIsMTEuMDgyMDg5IC0xMS4wODIwODksMTEuMDgyMDg5IC02LjEyMDQ2OSwwIC0xMS4wODIwODksLTQuOTYxNjIgLTExLjA4MjA4OSwtMTEuMDgyMDg5IDAsLTYuMTIwNDY5IDQuOTYxNjIsLTExLjA4MjA4OSAxMS4wODIwODksLTExLjA4MjA4OSA2LjEyMDQ2OSwwIDExLjA4MjA4OSw0Ljk2MTYyIDExLjA4MjA4OSwxMS4wODIwODkgeiBtIDAsLTMyLjY3ODI0MyBjIDAsNi4xMjA0NjkgLTQuOTYxNjIsMTEuMDgyMDkgLTExLjA4MjA4OSwxMS4wODIwOSAtNi4xMjA0NjksMCAtMTEuMDgyMDksLTQuOTYxNjIxIC0xMS4wODIwODksLTExLjA4MjA5IDAsLTYuMTIwNDY4OCA0Ljk2MTYyLC0xMS4wODIwODkwNyAxMS4wODIwODksLTExLjA4MjA4OTA3IDYuMTIwNDY5LDAgMTEuMDgyMDg5LDQuOTYxNjIwMjcgMTEuMDgyMDg5LDExLjA4MjA4OTA3IHogTSAxNDIsMzcuNzc5Mjk3IGMgLTUuNzk4OTksMCAtMTAuNSw0LjcwMTAxIC0xMC41LDEwLjUgdiAyOC45OTQxNCBjIDAsNS43OTg5OSA0LjcwMTAxLDEwLjUgMTAuNSwxMC41IDUuNzk4OTksMCAxMC41LC00LjcwMTAxIDEwLjUsLTEwLjUgdiAtMjguOTk0MTQgYyAwLC01Ljc5ODk5IC00LjcwMTAxLC0xMC41IC0xMC41LC0xMC41IHogbSAtOC45ZS00LDEwLjUwMDM3NyBWIDc3LjI3MzY5MSBNIDk3LjY2MDE1NiwtNjAuMjU5NzY2IGMgLTUuNzk4OTksMCAtMTAuNSw0LjcwMTAxIC0xMC41LDEwLjUgdiAyOC45OTQxNDEgYyAwLDUuNzk4OTkgNC43MDEwMSwxMC41IDEwLjUsMTAuNSA1Ljc5ODk5NCwyZS02IDEwLjUwMDAwNCwtNC43MDEwMDkgMTAuNTAwMDA0LC0xMC41IHYgLTI4Ljk5NDE0MSBjIDAsLTUuNzk4OTkxIC00LjcwMTAxLC0xMC41MDAwMDIgLTEwLjUwMDAwNCwtMTAuNSB6IG0gLTQuMzVlLTQsMTAuNDk5NzY1IHYgMjguOTk0MDE3IE0gNzUuNjM0NzY2LDEwMC40OTgwNSBjIC0yLjc1NDE5MSwwLjQxMTQ4IC01LjIzMjExOSwxLjkwMDIxIC02Ljg4ODY3Miw0LjEzODY3IC0zLjQ0ODg3NCw0LjY2MTU3IC0yLjQ2NjAyNCwxMS4yMzYzNSAyLjE5NTMxMiwxNC42ODU1NSBsIDk0LjIzODI4NCw2OS43NDYwOSAxMi43ODYwNCwtMTYuNjY2NTkgLTk0LjUzMjEzNiwtNjkuOTU4NDEgYyAtMi4yMzg2OTksLTEuNjU3MTYgLTUuMDQ0MTAxLC0yLjM1NjkzIC03Ljc5ODgyOCwtMS45NDUzMSB6IiBzdHlsZT0iY29sb3I6IzAwMDAwMDtvcGFjaXR5OjAuOTk7ZmlsbDojYjVjYmY5O2ZpbGwtb3BhY2l0eToxO3N0cm9rZS13aWR0aDoyMTtzdHJva2UtbGluZWNhcDpyb3VuZDtzdHJva2UtbGluZWpvaW46cm91bmQ7LWlua3NjYXBlLXN0cm9rZTpub25lIiBpZD0icGF0aDE4NDAtNSIvPiYjeGE7ICAgIDxwYXRoIGQ9Im0gMTk3LjM5Mjc2LDE0MS45NzM2NiBjIDAsNi4xMjA0NyAtNC45NjE2MiwxMS4wODIwOSAtMTEuMDgyMDksMTEuMDgyMDkgLTYuMTIwNDcsMCAtMTEuMDgyMDksLTQuOTYxNjIgLTExLjA4MjA5LC0xMS4wODIwOSAwLC02LjEyMDQ3IDQuOTYxNjIsLTExLjA4MjA5IDExLjA4MjA5LC0xMS4wODIwOSA2LjEyMDQ3LDAgMTEuMDgyMDksNC45NjE2MiAxMS4wODIwOSwxMS4wODIwOSB6IG0gMCwtOTIuNzI1NTg2IGMgMCw2LjEyMDQ2OSAtNC45NjE2MiwxMS4wODIwOSAtMTEuMDgyMDksMTEuMDgyMDg5IC02LjEyMDQ3LDFlLTYgLTExLjA4MjA5LC00Ljk2MTYyIC0xMS4wODIwOSwtMTEuMDgyMDg5IDAsLTYuMTIwNDcgNC45NjE2MiwtMTEuMDgyMDkxIDExLjA4MjA5LC0xMS4wODIwOSA2LjEyMDQ3LC0xZS02IDExLjA4MjA5LDQuOTYxNjIgMTEuMDgyMDksMTEuMDgyMDkgeiBtIDAsLTMyLjg1NDQ1OCBjIDAsNi4xMjA0NjkgLTQuOTYxNjIsMTEuMDgyMDkgLTExLjA4MjA5LDExLjA4MjA4OSAtNi4xMjA0NywxMGUtNyAtMTEuMDgyMDksLTQuOTYxNjIgLTExLjA4MjA5LC0xMS4wODIwODkgMCwtNi4xMjA0NjkgNC45NjE2MiwtMTEuMDgyMDkwMyAxMS4wODIwOSwtMTEuMDgyMDg5NyA2LjEyMDQ3LC02ZS03IDExLjA4MjA5LDQuOTYxNjIwNyAxMS4wODIwOSwxMS4wODIwODk3IHogbSAxMDAuMDI5MTEsODQuMDA2Nzc0IGMgLTIuNzU1MTcsLTAuNDA1MDA0IC01LjU1ODM4LDAuMzAxMDcgLTcuNzkyOTYsMS45NjI4OSBsIC05NC43NDYxLDcwLjQzNzUgMTIuNTI5MywxNi44NTM1MiA5NC43NDYwOSwtNzAuNDM3NSBjIDQuNjU0MTIsLTMuNDU5NzggNS42MjIxNSwtMTAuMDM3NDggMi4xNjIxMSwtMTQuNjkxNDEgLTEuNjYxMzYsLTIuMjM1NTMgLTQuMTQyODcsLTMuNzE5MzcgLTYuODk4NDQsLTQuMTI1IHogTSAxODYuMzEwNTUsNzAuODY3MTg3IGMgLTUuNzk4OTksMCAtMTAuNSw0LjcwMTAxIC0xMC41LDEwLjUgdiAyOC45OTQxNDMgYyAwLDUuNzk4OTkgNC43MDEwMSwxMC41IDEwLjUsMTAuNSA1Ljc5ODk5LDAgMTAuNSwtNC43MDEwMSAxMC41LC0xMC41IFYgODEuMzY3MTg3IGMgMCwtNS43OTg5OSAtNC43MDEwMSwtMTAuNSAtMTAuNSwtMTAuNSB6IG0gMS4yZS00LDEwLjUwMDgyNyB2IDI4Ljk5NDAxNiIgc3R5bGU9ImNvbG9yOiMwMDAwMDA7b3BhY2l0eTowLjk5O2ZpbGw6Izc2OWVmNTtmaWxsLW9wYWNpdHk6MTtzdHJva2Utd2lkdGg6MjE7c3Ryb2tlLWxpbmVjYXA6cm91bmQ7c3Ryb2tlLWxpbmVqb2luOnJvdW5kOy1pbmtzY2FwZS1zdHJva2U6bm9uZSIgaWQ9InBhdGgxODQwLTMiLz4mI3hhOyAgICA8cGF0aCBkPSJtIDE4Ni4zNDU3LDE3MC42ODE2NCBjIC0xMi4wNDU3LDAgLTIxLjk2MDkzLDkuOTE1MjQgLTIxLjk2MDkzLDIxLjk2MDk0IDAsMTIuMDQ1NyA5LjkxNTIzLDIxLjk2MDk0IDIxLjk2MDkzLDIxLjk2MDk0IDEyLjA0NTcsMCAyMS45NjA5NCwtOS45MTUyNCAyMS45NjA5NCwtMjEuOTYwOTQgMCwtMTIuMDQ1NyAtOS45MTUyNCwtMjEuOTYwOTQgLTIxLjk2MDk0LC0yMS45NjA5NCB6IG0gMCwxNCBjIDQuNDc5NTUsMCA3Ljk2MDk0LDMuNDgxMzkgNy45NjA5NCw3Ljk2MDk0IDAsNC40Nzk1NSAtMy40ODEzOSw3Ljk2MDk0IC03Ljk2MDk0LDcuOTYwOTQgLTQuNDc5NTQsMCAtNy45NjA5MywtMy40ODEzOSAtNy45NjA5MywtNy45NjA5NCAwLC00LjQ3OTU1IDMuNDgxMzksLTcuOTYwOTQgNy45NjA5MywtNy45NjA5NCB6IE0gMjg2LjE2MTM3LDc2Ljc5MTAwOCBBIDExLjA4MjA4OSwxMS4wODIwODkgMCAwIDEgMjc1LjA3OTI4LDg3Ljg3MzA5NyAxMS4wODIwODksMTEuMDgyMDg5IDAgMCAxIDI2My45OTcyLDc2Ljc5MTAwOCAxMS4wODIwODksMTEuMDgyMDg5IDAgMCAxIDI3NS4wNzkyOCw2NS43MDg5MTkgMTEuMDgyMDg5LDExLjA4MjA4OSAwIDAgMSAyODYuMTYxMzcsNzYuNzkxMDA4IFogbSAwLC0zMy4xNDU0MzUgYSAxMS4wODIwODksMTEuMDgyMDg5IDAgMCAxIC0xMS4wODIwOSwxMS4wODIwODkgMTEuMDgyMDg5LDExLjA4MjA4OSAwIDAgMSAtMTEuMDgyMDgsLTExLjA4MjA4OSAxMS4wODIwODksMTEuMDgyMDg5IDAgMCAxIDExLjA4MjA4LC0xMS4wODIwOSAxMS4wODIwODksMTEuMDgyMDg5IDAgMCAxIDExLjA4MjA5LDExLjA4MjA5IHogbSAwLC05Mi40NjgyMjQgYSAxMS4wODIwODksMTEuMDgyMDg5IDAgMCAxIC0xMS4wODIwOSwxMS4wODIwOSAxMS4wODIwODksMTEuMDgyMDg5IDAgMCAxIC0xMS4wODIwOCwtMTEuMDgyMDkgMTEuMDgyMDg5LDExLjA4MjA4OSAwIDAgMSAxMS4wODIwOCwtMTEuMDgyMDg5IDExLjA4MjA4OSwxMS4wODIwODkgMCAwIDEgMTEuMDgyMDksMTEuMDgyMDg5IHogbSAtNDQuMjEzNjIsMzIuNTU3NzE2IGEgMTEuMDgyMDg5LDExLjA4MjA4OSAwIDAgMSAtMTEuMDgyMDksMTEuMDgyMDg5OSAxMS4wODIwODksMTEuMDgyMDg5IDAgMCAxIC0xMS4wODIwOSwtMTEuMDgyMDg5OSAxMS4wODIwODksMTEuMDgyMDg5IDAgMCAxIDExLjA4MjA5LC0xMS4wODIwODkgMTEuMDgyMDg5LDExLjA4MjA4OSAwIDAgMSAxMS4wODIwOSwxMS4wODIwODkgeiBtIDAsOTIuNTM1NDQzIGEgMTEuMDgyMDg5LDExLjA4MjA4OSAwIDAgMSAtMTEuMDgyMDksMTEuMDgyMDg5IDExLjA4MjA4OSwxMS4wODIwODkgMCAwIDEgLTExLjA4MjA5LC0xMS4wODIwODkgMTEuMDgyMDg5LDExLjA4MjA4OSAwIDAgMSAxMS4wODIwOSwtMTEuMDgyMDkgMTEuMDgyMDg5LDExLjA4MjA4OSAwIDAgMSAxMS4wODIwOSwxMS4wODIwOSB6IG0gMCwzMi44ODIzMTIgYSAxMS4wODIwODksMTEuMDgyMDg5IDAgMCAxIC0xMS4wODIwOSwxMS4wODIwOSAxMS4wODIwODksMTEuMDgyMDg5IDAgMCAxIC0xMS4wODIwOSwtMTEuMDgyMDkgMTEuMDgyMDg5LDExLjA4MjA4OSAwIDAgMSAxMS4wODIwOSwtMTEuMDgyMDkzIDExLjA4MjA4OSwxMS4wODIwODkgMCAwIDEgMTEuMDgyMDksMTEuMDgyMDkzIHogbSAzMy4xMzIzMywtMTM2LjU4ODM2NyBhIDEwLjUsMTAuNSAwIDAgMCAtMTAuNSwxMC41IHYgMjguOTk0MTQxIGEgMTAuNSwxMC41IDAgMCAwIDEwLjUsMTAuNSAxMC41LDEwLjUgMCAwIDAgMTAuNSwtMTAuNSB2IC0yOC45OTQxNDEgYSAxMC41LDEwLjUgMCAwIDAgLTEwLjUsLTEwLjUgeiBtIC04ZS00LDEwLjUwMDc1OSBWIDEyLjA1OTIyOSBNIDIzMC44NjUyMyw1LjI0MDIzNDQgYSAxMC41LDEwLjUgMCAwIDAgLTEwLjUsMTAuNDk5OTk5NiB2IDI4Ljk5NDE0MSBhIDEwLjUsMTAuNSAwIDAgMCAxMC41LDEwLjUgMTAuNSwxMC41IDAgMCAwIDEwLjUsLTEwLjUgViAxNS43NDAyMzQgYSAxMC41LDEwLjUgMCAwIDAgLTEwLjUsLTEwLjQ5OTk5OTYgeiBtIDQuMmUtNCwxMC40OTk0MzA2IHYgMjguOTk0MDE3IiBzdHlsZT0iY29sb3I6IzAwMDAwMDtvcGFjaXR5OjAuOTk7ZmlsbDojNTk4NmYyO2ZpbGwtb3BhY2l0eToxO3N0cm9rZS1saW5lY2FwOnJvdW5kO3N0cm9rZS1saW5lam9pbjpyb3VuZDstaW5rc2NhcGUtc3Ryb2tlOm5vbmUiIGlkPSJwYXRoMTg0MC04Ii8+JiN4YTsgIDwvZz4mI3hhOzwvc3ZnPg==;" vertex="1" parent="1">
          <mxGeometry x="753.59" y="200" width="79.29" height="90" as="geometry" />
        </mxCell>
        <mxCell id="65Yv2bHratZV931YRDcX-4" value="BigQuery" style="sketch=0;html=1;verticalAlign=top;labelPosition=center;verticalLabelPosition=bottom;align=center;spacingTop=-6;fontSize=11;fontStyle=1;fontColor=#999999;shape=image;aspect=fixed;imageAspect=0;image=data:image/svg+xml,PHN2ZyB4bWxucz0iaHR0cDovL3d3dy53My5vcmcvMjAwMC9zdmciIHhtbG5zOnY9Imh0dHBzOi8vdmVjdGEuaW8vbmFubyIgd2lkdGg9IjIwLjAwMTA0NTIyNzA1MDc4IiBoZWlnaHQ9IjIwLjAwMTA0NTIyNzA1MDc4IiBmaWxsLXJ1bGU9ImV2ZW5vZGQiIHZpZXdCb3g9IjAgMCAyMC4wMDEwNDUyMjcwNTA3OCAyMC4wMDEwNDUyMjcwNTA3OCI+JiN4YTsJPHN0eWxlIHR5cGU9InRleHQvY3NzIj4mI3hhOwkuc3Qwe2ZpbGw6I2FlY2JmYTt9JiN4YTsJLnN0MXtmaWxsOiM2NjlkZjY7fSYjeGE7CS5zdDJ7ZmlsbDojNDI4NWY0O30mI3hhOwk8L3N0eWxlPiYjeGE7CTxwYXRoIGNsYXNzPSJzdDAiIGQ9Ik00LjczIDguODN2Mi42M2E0LjkxIDQuOTEgMCAwIDAgMS43MSAxLjc0VjguODN6Ii8+JiN4YTsJPHBhdGggY2xhc3M9InN0MSIgZD0iTTcuODkgNi40MXY3LjUzQTcuNjIgNy42MiAwIDAgMCA5IDE0YTggOCAwIDAgMCAxIDBWNi40MXoiLz4mI3hhOwk8cGF0aCBjbGFzcz0ic3QwIiBkPSJNMTEuNjQgOS44NnYzLjI5YTUgNSAwIDAgMCAxLjctMS44MlY5Ljg2eiIvPiYjeGE7CTxwYXRoIGNsYXNzPSJzdDIiIGQ9Ik0xNS43NCAxNC4zMmwtMS40MiAxLjQyYS40Mi40MiAwIDAgMCAwIC42bDMuNTQgMy41NGEuNDIuNDIgMCAwIDAgLjU5IDBsMS40My0xLjQzYS40Mi40MiAwIDAgMCAwLS41OWwtMy41NC0zLjU0YS40Mi40MiAwIDAgMC0uNiAwIi8+JiN4YTsJPHBhdGggY2xhc3M9InN0MSIgZD0iTTkgMGE5IDkgMCAxIDAgMCAxOEE5IDkgMCAxIDAgOSAwbTAgMTUuNjlhNi42OCA2LjY4IDAgMCAxIC4wMDctMTMuMzYgNi42OCA2LjY4IDAgMCAxIDQuNzI3IDExLjQwM0E2LjY4IDYuNjggMCAwIDEgOSAxNS42OSIvPiYjeGE7PC9zdmc+;" vertex="1" parent="1">
          <mxGeometry x="753.59" y="365" width="80" height="80" as="geometry" />
        </mxCell>
        <mxCell id="65Yv2bHratZV931YRDcX-5" value="" style="shape=image;imageAspect=0;aspect=fixed;verticalLabelPosition=bottom;verticalAlign=top;image=data:image/png,iVBORw0KGgoAAAANSUhEUgAAAXYAAACHCAMAAAA1OYJfAAAA3lBMVEX///8FmIoAl4YAl4oFmYrT4uEAlYcFmIsAl4UAkIDy+Pfn8e8AlYnC4NwAk4QAkoIAi3oAhHsAj3ywzsplsaoAkYQAjnt1tq8AjH0AlYwfnpHT6ebM5OIAjYMAiHcAmYOLwrkAkXrd7OuZy8fC392u19E8pZkAkYodoZBdpJqItbFenpc3jIQQenB+w7kbjoJBrJhVpJc7l4tuuq1erqBBqp+h0Md+ta13sa1hs7ZXsaWMxsBqu6tJn5dJrp6Gw8Ct2M1lvLY5l5UqoJm91dATi4mSwLyJxLNSrakAgXNRB45jAAAP0ElEQVR4nO1cD3/iNhLFkleWQdjgILABx9gkkN222WaTkF5y273rZnPb7/+FbkbG4P9kf7du73p6bSlgWcjP45k3Iym9noaGhoaGhoaGhoaGhoaGhoaGhoaGhoaGhoaGhoaGhoaGhoaGhoaGhoaGhoaGhoaGhoaGhoaGhoaGhobGXxTJ2bsffhyPf/rpxx/enSV/9mj+P7C4DsIwfP9eyvcAeBvMFn/2mP7yGP7sEhZQyzAM/M+wTGIFzs+Xf/a4/tJYbOLIsLhpmEcQ06LCmQ9Pnjx4t9rj6Wl1QPr2j/RUF+oXl43HF8+r2dubD8779+cj2/5wM1td9Guavahu3nQ3zgz925gTRmmecgDYvGnw+LFubHm8+cm3bdeVDsB1XQ//lVLi++nFdxlgcrG+O93Kd23pekbD0f65H4YSxsRdx+UOvHqxN5qvB+WGtgxt+/zsPxzyaSzmwjQo/HNgnd4TRTulEaeB1WxACm/GggGoZVkGYwROZQxONeCtd+LU16B/xR3g4WS7XUwZEyJueDz7UylgnATbwMjwlUeccPex9EQy6IaNOqd9GJsWWjZNDRz9ejB003dwKwyD+e0e/s04MNX1sP0lESKYiW9F/B1oH8SECjY92e6LZPCzJruvP9yPYVwmDg6fZmUbhBhCmNx9KjQ0LEFJ57Rfety00FCP4OuFY+Qh1209AO0UDQ1pJw4YEiGOeu8K7zs4mUFs0iA4SftliDcdHtpRvf7qe6aBpHPX9gAuDJQwoN0wqdzk/ahhUWr5HdN+6cONNwqsG6S3LNIeeW28753MvAb8e1i7Syn4jlPN5spxUEqdx9rjKe18M5k9PDysHn7528aQoYCL5eBprnK8M6Dd7Njal1JwDk9dnnZnDV8XaDdMt8XPAO1gOUElNn0nIO2UnLL2YczxeQP/EcnakaS0u3k7SNZXHuEEz8ndKoZBbtop7X3w4Uq1IO1wdSnJ/d7SLbAODwNvZhWtnbCwU9rZqZD6yIF2J0Q3F76ra5DSbpcC7mUItMOVy+P3DLjo2Nrv2V6/WCnvKp6CQynRDhlUsGnsJKVddEe7cZr2JCQc/NyZyyCcb+skb98jNbT3BiYH2UDJ/PANw7vcKe07F5WKUQioNIADJd8OCL6smnpJlUz9o/0dMPCg91O030rwc86u53IiSFgXiYB2VkN7b7DFnEX8fsiPDIgkndLe55yaELaDPO32rldHu+mcN/GKSkaIDmk3wGu3094fgXeJwDs+eXCLgqCuiYcS165Kq3WMWn588ExIu+hSyVxHoJ8oLapHNeQq7TyK/t7QTapk2mlfXF7fbeZw9+Z31w3RuX92++vcZNbmbrbLBz6knTG/n0f53B0HC42uoTFK17ynPnbvsVprR6cPSYb8mH1maO0d0t6HBxIVl5FnPZUsVdrBFbkNxKZKpuloDys+49B1ITkBJcgY98a31VLNYjK2CVYoKPgCHo4/HvgB2jHB8c9H5wh89cu8z8FgyRRHMAEXT8WvNVc7baC997MSFQfnjllql+nSGrJlUTR1w0h/vSwgFdh1fT+ptbfQfjGlkPiBulPPL+FCVvKvlQwExUyXpsluEB6eiZR2rBMRVXqA6E1LtA9tOCxV2WYJRk3NafW+NtN+66j+sz5hiJ369jlcadHDWIFMr7bO2g2T1fdzkvbEh3MxezUNE2knAQs/FVpMwAKAcIdjcotGb8gDcRntmM4zfKWsTPtXFAZhyuhGMBrIWWUQjU6mN3NVFSkbvwAb6ZD2JAwyoZ6xbln7R23JaljnYX2VKVUyTotvH0Eq6GJK7tkSknJOiNjmPfwqFFiNE9sQEvc4djHGHQ7uaWc5lGhPJPim4HP6YR2CkyGs4v6blAzQzlUhLzsjCDq19vU2oqrUlWM2C/S11m4Eq9qOTisZY8pvPq0vLpbLi0+/+VgZiYLwSMwipGjs0/l6uUgWi+HTx1F89M4DV7EupbR93/dsL/TtIqkPITeYu/dbfQkxhHmVuL2nvaZIdK+qeAfaRdCpknnLojKvJMuJlq4q1UFwy90WU9SnTMrJiG0L7Zf56tSQo8EzuTp8cwuRRNA4x1T/H8cPkC4B7aOWK5EUpPfhtv/TESbhlaHunUwN7aooJj9kH5lFu8xSt1j4LIAeHsEF39eygoIbsmtnPJSSafPtJQxsjjfVOnwxdQgLnKaqz8ClEDBbdPula4GQmmQfl75BHOKW65D7kFql/SKG4bDxQ/YZ7It0p2QGYMhIe86/B79VWt0WnPyodo5OFQdIcPFm8UZhoYDvGn4aCyEg9LPOkhgSemE2DhRob81S54SCvjzyCQ8pPKbloNqoZD5HqJ9+f84+45xad759yQ1F+1HJBLJiCqW6u/dc11NakwkgGtoAL/bSN7bXSJXFIVGTmXm/GaFnnzc1Bt/OzBbaFx4oRpaby1t5kP6w8pPZpGRuPRCkgnuH5lhv7472S1amXVTnZSZF9y9rHUGqZDgnJsVsJ9oXvg1mN/32zEHas0mdZIxSudnagUWjhfZfHGaY7ip3QgwylcW7YrN6JdN/VLLJyJ2Pcaa7LBVoV+HySLtXsYRkywtKR9TOdgDthprKezXtZ5IGgZNlX4MxaIegLqFPD3tGG+1oxQbz8+7vEX4/ij+U21VrMotr7pqgogJCjl92W5Op0F4zCXnHi8Ke7Go6ygq/jKtSAwVjQes1WmgfSkKpcwiCXyQBA4sbYjLq9hbaLz0KtBeEy9AWgnO/GFSVk2HuLo08y4uzlwnxwELAg1ER59oynKHs0MmYRdrtyhxk4pYqB04T7ZABGTKcAjz1Aq++PW2kagkxlRxpv3YhppKo7Bb2UOlSs5L5CHfMcIunogWLbTGoqpBqmo70/RFgOg1xiQp0De5umn/Suq3JDEv6kVWnICfCKMKrHUxq7c6iX0Gh2WC4W81mD7vLBGiH5/1I+4CoigDbztc1CjXNUptoT3xcyVaKnzMHUs2gmKnuacdoSxSAdWGqmSVRMLhuazJLpuaUzL2ANLc1xl5i3fCblAxcRXvhd3lrgrbBBUy27fM5VgmPtPeGPsV4APKDTypqCkJqC+3XEVp2yWQWPtBOi/O/6GRywAAE1k64G6+KJ3dbk+n78KsWTmilxj6ptJjwchrbpNsDSDDaajIXc18t4UhLK2BuFLVG7hcvtg6WFznnYShKJo+0G420RwRYD8v36gMEaVpMqtOQmgEXzAgpbfvXXfkBw9BEu8tSJcE5UpOkWoVdpZhfZQIj2Zq8yLrVlKUGBuEttM9CtGTCzIx2uNngA/I3OtnIIKDpYi3pzPJ9KdqbQuowhsdVVGaTdhLkyTEhQ+xplyql8PHR+/D2pW4RJE5z0O5qMnecWZaZ0W6ip8d1YYf07o6btBBSTfGxtqM0S22mfTJCqiGIco5FyAioJVHetysMNx40oQyPBXnJ1Krb79T6Luvx5uZtHvfoRHiu7KOcjGCgZBIUMkkyqE5R7dHxyoGdZ+RoP4rEPe2Ji6uW8ryb2/p5jlTJNNK+9gkmsdvw6l87rEFePn2VKqaV3dpiZsdqjgOyTu84g9hGez/E22lShzscUmNXuvjiOAIdFnH8fNMp0l5xR1V0W5PpJbHZRvvESGk/8s5l/RqvdmvvS4HeXE5yT/xCoj+pRpP+buuILU4DmPYv2ZdttK+lQHWSipOj5wYvoW5sPgFMaW9Myo7otibT612RFtoTryxjgP/6fpSSafTt61C51FX+u2UD7YDLz2EABHIxzu4x1tubaP+ZkUKgzBEP3oqI3E+kvv1VtHc6u9Rbu0i7WU/7JCJl3nnjXGpbSH10BOXka+G7FtrR+QVouk420aFor1cyi5hhOJDSt3EOJHUytoRX12VqPeTRge+LA6+gvduQ2us7pmGWud3TnsjyU2AYzSsHQEA20i6wvOgWr3ZpG8209waKdjOrCQ4crLfXroFccazxXj29PK2enl5ecDeJen16Wd3aIL+pfQzN30R7t+tkONiRoHW035HS1wHzqtPCKdp9uw8eg/jFg+20w2F0E+4++vU5Liid1nXPiSl4vKrtxMVNBLmiaqpkXkF759sK+hEIc6s0j61oT1Qtq+DZhd+8Kgyz1GbaQVR8G+29uaI9S4lx1YFZrRiB5nRxYj2u3x81QbkUfDkcTEPqfwPtuAYSCa3SPglKRTDLkk9NvbRbO85UktIEyina70BDCje78g10YPCaOtkdaB7Tvarv4wLLi4F8yT7/91h7r/cVSKkJqYlX2mhglEqrBYBvb1EyGxdXdhYd1CnaN7gd5mDtjxySV6f6+/14C1GzcacJVwnAIYF9vW/vfltB3+Vl3pH2SVShvWWGWk1zNNJ+rS53W/AEJdrL+eJCBvD8eNkpZz4WDcLKzNZuCrQzu2lg1w5uZTrkGt9Eu9HxJpqlE5XqXWxWlTGm6bcMVzmZRtoXNgO1GJBh4buCgNzcXOaZX5gMNWeUfR5MOU4X8QPvw6/K0d94jkFZzXLH/aXZWHs7SPdX0/5HbKLpncVF1o1g1ptAlshzet48vXeppSazUbkLi+er52WSJIvF8mxCCrSPbc99+/S8XMDR59UmlIRFkb869PBVIu/M2zzsLterSeCppUiDEScGtZt39+DMN+PZFNc3hFTD7H6D5OXYKEiZ7WyAJTKyz6PwmBmf2KnXSnsSYyldEMexw9CLvdDeSpVaZrQnY0m43IY4JQUNImhLzHw9JRlHanaCux7kRVIwifX1lYPJqNNU0YIGLtbVs/Vh30J7p8WBPS5ckt8xJq5nNM1eU9rh/237xXqnK5DPYcQo57ism0dRxJyAmrhxNaP9bCzxKNbAGRZTKC4KDvLB4CWOeL7uIrBMEeEMVUtc7iW2gLvl7r1QOs3xCtpF55toUizmTn6J+yZ1LOkHcHPCPLkLu03JAC6oDLAiiJVs8NpodVhWzxibfQk5RnZMZyFvZgZzvU2xt5Uv1PST2mbMAgFafWlTxqPWja+bLZ6yzxnAt6MFvcLaRbc1mSNmYSknPbp14r/ibw6MR6NR4x4bxBpciFqQAsBJZH80nVqHdTKfgvOp6wi1N50Q1z7fVMhZfh7ZLhZ0GZNy9BFC8OM5dBK3bldd/w6/5P+eSvf++XQ68s9PF35Hfggn/RG0995sXAYWH+UFDJi5Ybqv+Asb/XT5XXuj5Gz269yy5vP7u1/erZ+XxZs0OJvdbCycaZs/zs5qb+DiZbKZw/k3s2dlB+nCi/a/4FFok344ZUMw0le2+y4Y3geBjI6zeODhBIk3+u/JdI3Fp/fjkDEj3TsRhq55rf960h+C5Oz6/op7Hrm6f9B/K0xDQ0NDQ0NDQ0NDQ0NDQ0NDQ0NDQ0NDQ0NDQ0NDQ0NDQ0NDQ0NDQ0NDQ0NDQ0NDQ0NDQ0NDQ0NDQ0ND438f/wZT/iGMUmTg7QAAAABJRU5ErkJggg==;" vertex="1" parent="1">
          <mxGeometry x="260" y="220" width="193.93" height="70" as="geometry" />
        </mxCell>
        <mxCell id="65Yv2bHratZV931YRDcX-6" value="" style="shape=image;imageAspect=0;aspect=fixed;verticalLabelPosition=bottom;verticalAlign=top;image=data:image/png,iVBORw0KGgoAAAANSUhEUgAAARUAAAC2CAMAAADAz+kkAAAAb1BMVEX///8A3P8A2/8A2f/1/v/6//+79f/m/P/p/P8A3v/w/f+R7P8g3//F9f/5///u/f/f+v9s6P+v8v+n8f966v/Z+f9F4P9Z5f/B9f9V5P+d7/+H7P+28//U+P/N+P9z6f844/+g7f+D6P+X7P+D7f+pm44WAAARRUlEQVR4nO1d7cKiOA+VCgpS5VMQUWSeee//Gl/apl/QAuOOCrueH7uPCA4NbZImJ2Gz+eKLL75YKQ778/HSxP7piWv9+Jhds13s//W7+iyavHUQQVDlu8OfXOnFYYkRA06Or7rBD+BcIeQAiGSSizfzyuhaIHltd3EVv/RO34hMGRcMDl/nrKQ4dwaXOunL7/ctCHsDg9GFU/Nln/RFwq7M3nLXL0ZmGhqVy+jwDrlRJuTCy7tu/XWIFYWCkDZS1DbWy9JAO1O7Nvgjdb1IVDAWVOR1WD9aXXnm5gHGFVJFEpR1lmZ1wX/q8eYx/HU0MJLg5tLP7v5aOYpcsGk5ZOoZweMYscPejR9buyHiD11dK/eHoxjquq913USV2lV13S7sG5S/4c5fCB+GcdUPE5MrtYvust6x/Apnrn5hDd+9+LZfjCsbBR58EZdy7I66iqRz000jt3+Zi9lXu1fe9MvBFpDRxbhIK6NMpVyZQybtwZyfdS8hD6bK3vit9EhQwo64wvbYvJmzY5l8K8KRPdnK8nUjVAhqiYmO5efKLMjNhpnn7ZpdFqZWUGj7/iDMDerm012oYGTfDjzQ6hXLDxuC3YXt5MZdMyzcWRSM+PQ3ZDJqqwIzNMGY03UMpCoZU7McdyaVn799q+/DqaVDwKMxNF/6J0wo5cAeq4gDVT2vES4bQTEeS3FLVSxTRtfHbD7NjVstDyAVmwkSeCguvlUz898smFSeif8uAwemA8rJE6UpqqdO9ZhpxqPLbNGYK5WdsoJG7BUDc/SCf71UGlXZBueJs/8jUmFWRSiWYCLr89+QykE4b9ydGx9wtXa94jrTNshruablKnfi/NVr2zmWWcgiEyGlUZflUKzeX2ExomLkufJkEfVTuN8ytssBL65ar1S8SY8/5XJgfgr3cke2xOv3+Cd3h9wm80EKJWO3zyzstObdIcQbkW2IEWwM5Xo48CNWbdpMhGxWAIiy2vgVFRdBJA7xVKPVnGf2SPBakI2GiLjNcdS5dFTVrwH5ZCBr8YDpblaNO7NqFdl6c0AOsgaR8ct1AJzbwvSdD44+eriRLxEdwBAhY5LdK5g2fvGNvxZs5APT7LkHXyQ5WhwE5Lzuc/cHxpirlso/uH23hOkd1L7p/l8DGPpdHnGbLEwqPCAxGdCdgqtHmDWKPWpWH7bdCCN0ox/OaVgFAxbLlGQox7AMU6aSr+s3Qdx3RYm7C9s/E4dBOG24A6WzahO02eyRHNWTAtFFA399elz/ELMngsSMK9acZj7d62JKHE6A27aqyoShrKqW2KQp4RT1fZ1B/jgsHMPQlNmAknO87xwU9yTtr3dyD5G/j2MZ9jfzS50iXB0PzE2roe0l48NFGXJPH485qD53W+qwLLBBNt2BKl1TRM6v8ZCO3blr+e1OCBjAhZzgze74frr7e3+/PVpnMPUQwvVaKh7Oj+GcR1XacAcewm+T/NCkx6k7NFlrWJCPqVTJEhCXukxgaHKDuOffTM1+l58opwMEpfR/AJVLl4uvy4TUd8Bf4hQeVJnm5fA1JEIthy37sTzo/SvlkteRF6p324kk74YOrEeuRAZDHUHVU0DgKbebzUUXjIG1uxgcVSYKckpGx6511iM3LTbemwq+2LjTViqbIPdWqisJ4WUWVLlqkUZnHLg3AZx1iIgAAXdm3DXUFK4Lv8TVSFwrjwGhfIFm+lyoMsmkK8KJw/RZRizgYkhyeYfoMDwI6jWgPycXEEd0VeVSLE7rqpxirDtXD2UJ5WZXJUrzqsVtld968TeNuF8awvtuphDcg4UxK2VpFHKuvZnMl1B3+GxUtfsc9j0kklLrDi93WrppEMG/0ZsR7lWpCVhU3OUq7+sxcOMZZ4uGnhLTwK6a/9ErLAQaB5EjBJyGWWtfFoksiXGabsUcNoWDck7YuKvrgUPjChJstZQAbJpQw6P7pnE3Yv1uFzNbeArHluKAdePsK1V3AgZC6f3MAZR1Bb8SmE26mC7bhVhonsJwkKWo1oOn3BpmeT0USk+hcpXVjlOEhGab4kq9CVwhOtanlGnbFzWFfDQJpTtTSQqcWk3tWM0MJ3nP8ppfDm48g7v1lEhlvqkz6lRYpKLSU27qOSMcJ65cllDZ6/Fs19h6VmjGWsz1YotDakF8ZbKM8nGPBpF+CNyujJrERhmXqnwMqhbOUhXuTrl6NCrJtxP2Wfsu1DYvQoN83OpUEVHIIbDq5MpiqgmdAWp9kuD9cjDNYKWoAISF0KbKfSSQrzp6YrJMBWWOI9n+dyJij3uSI8AHq51oVSv9VYBNV5sA2f5P8zhiPGdmy5iA5tKkI1LRDAmYIfRr6p9higp/OieyB6Ln1Hn1P5IKV6OTCgOI23NCWq8EOOTBhDH0+Gi1XKjFhxuuIOHvTASWPFhBH69gBbU/oQaltr0pR89WoejUUnn1xN7vNssgvgFgmdvxpygsM1InS2S3zBqfW0yVCY6TWyzFMsPzHg/Eql6cOlkSqxenBhuUbj/jHgDfai4gUsnTE7eRc9TCQnWyWBWLqlY8ZUaNMtVTJQf7afB5MKJaDrbd4aYyi0Wz9HpjKLsrIpiqiyBCiUoNqyrsRRIU5snZMlkUh8PlDFT2X+t+iwtvIf2NXL5NsWk5HnWqnOHAriaxaNOJ18pAhN9WHC2Ki5ZSTyW2M6gyxsFEhBK2yBr91hCM0zQ3RPrQI4IvjRtiXxq5z2+YAXL3Zuz8V/ej2dqc6jfZQ/oi4W1qYjBYxkKzVDZZWFBKSLruBtoEBNzIskh6OVGKm9YoodcV7A5HcyH74Qo5K92QFtWP8SYfltOnH91llizmotNOOIS0KSljiPVybDBgEqIGtds3MX6u/Ntj7sEH0KiJzVDbh0A6iJoGvknszfNTE5Ytbstr09tPcV5H2P8hjqhWU7mLsMkqIsX10OeL2rbrwO9/Xmj1BLIOqOFpBkvIr9V+e2Zd/2FctV6KCX9uoBmgxVtmUrhW9OIPvSV0LLV/cUHJVBV7vXskvlJfrNfLjBcWzgkMxXBuC59VglB81Xia4w1+Potep1GnTfewXRaapOmNdAycHMhdENg24U2ctXrKPliU7enDrXsdWB3u0IpTeKpxOk3Od3tSvcLPtjrDGQXDJoQLg6YAHbF9kbY44t9MhZz5nlJJ1psiD8jJPx2QnIP9kJndzfp8twd7zRXuVPl6oqvag3/Lh8USCgFv6Yiy1kS7b5Nw57se98xGIzIqBdVz/V2dYBOVX2/0ungcS0NlIWvI//Pgn8dGJDL2jx9Wljf8MadcCFflD3BIW2MRi1IJU12a2KQnD3GzE3sb24+02adzYU8iSqvhgHpzB21J5RRuGTAOnO7IZElZm61Bw1phj+IbBDS7NnHldYce8AjxXyjHpG/6MO+bVwYgCZRefH20RqU5WyBBkWe+B/vmxTAln4JalO369+ujwsEfLRUqD1w9sjN7x87FEE1YHYZ9QaL4nuVlgfG0YBAuiqRO77FibNgOfOV9Etj+ztDCyN0L7x0zaH/RoSeGVzBx+u07bv5lYMrRyD3ysOL5e657iA6uS8QA+SWEjTkOCAKvxc03IaImyML54QmRXoqaZ4gsKQyI9C8sQPtHONqTFRsl23cbXGJPEoL+XmjgbRYmWlOJVxJIbXwWHXws1/wLGrBAdNKWzjuJJmBcTYheaVY+DPSLWwQt/UmwzvN2PsleCIEZX/7uBmRvvAe9BVfchxJU40jnedFckLHMRatOe4gA+FFLybE/ASAjjHWeF40oyZLIJzQtAeRnV9z1F0pMRzlzgmGRzOvkyumJH6dJPg1WtIuKUR0g+pRW6rSZOn/NUpnVj59TTwQtZ/x0kMqq4rUa5kmlVyw2pUf/I1LR3vSBLNWWEv8VqUCJBLO4k1zZcu3bw1nalkDwcWdwZVevbU8zLDNBrqygamq4q7fMM7y4Dif9TTnFuGKB/gIr9uKmPf4OkWaCnNES4I2oVVyxx8/fSzY2zLt8A5f4Y4yMcgYNvuLd4XTfVVn64zSSSTwSwm9GA1mrAMTirJwMV3uznydzy63VQAML7PdrbvgtgE5MNtOsvAWyogEWYYxQYJtf82rXlg1wz4yK5SRZUSgB5am0tymNOprzmFesbMV8N/FIj9L2KFH+i/L6w6thioGmal92x+8Ar+MeUE182awSOepyiBVhtYOQ3AmSZGsO8W8EcbhnMjSeeY8pe5LleAiVPfIBpyWvmr0ih6GmfGKVfmqwsanS1AtV6pW818sSKgv/CXg7MzHnfY1JaH6RrK92XEHBD19h4hVM66avbJS4rFP+ysIy2Grc+4elXi7TekwihKskEdJcdTKIwZM+SZ+3glr7M496rYPVaycDUyvAXXudoTLOIBvdy9wrC/dn3R4cx87Yar1XWmXCpTCSStfN/hI49nlNnZ4I58RdvWMZ9C8N1szR0LBP1JKvTu/uZkfSzqSrvxJrSNYbrx3iXGNgWeNk94fK8p6VsJ1qwwX0hfi72DeXy/H+JMv8cL7fz6veEX7xxRdffPHFF1988cUXf4b98Xa77RbTxsmOHS/xIVU+ZX75Byly4974t4N5Q9JLBQE6XC+9gnenRkNIzfGze9woN9YUhYgmpDckHCzzAMtr0aODSUUW4aLgueeYYnOXZxLkp1Kh0X7+z6Bg2QEGKpWCgQbgniubJHmBUan4VOb58X7OSehl4UF/IhWerHEzOlueUS3JlFQI6wVetEL5l8vmmVKpiOQwSY0+9SKFSankSOYPwy1C20WH/XWpEP4AS1P4Nd5uUSWi8+ek3XYHWtk75VeFttugJKHq4y9CCMS/fg2D+VwqRN6cbRdlaZotOpqrSyXkn1LQvVwt1lwZ88ZdR4cfaF3xli4DoZ9LhfI10O9Fy0JCkwptv070CtECzFwgWlbGP9OhES/s6MgzWl6ANiaVeMsTKMcVBHOpVH43R4KcGCFCiSP0JFTdvV13gNBxDuT/Zez6V4dl5ekBnHn+/8gV2e2HhvR/foZcIGGZRdEZcpIFvAJmHDvhRsBMILRYohppL0FiLrqZdK5wwHoLloiK7Rc5la6tnFzG1Ma4v+LJ1nQIFavw4uT9VntWKAgMWiIfQleJ9tQ/9R6Iuhot4jTLc1WH99O0DequVVpqLa4pZw9irpCbxTV9hrTfA9OyKRI1Ue4h+ymYA0berasTj2dIpbNrSlZx2SwFpleOF7rsMXuClHOb/BAQPi3p++DtEryFNVbSCmWdvj1LKh3iC/TUWjYpWdggWpHLqJNHRdd0f229zZ1OfiEV0v/2Oal0OO0oL2ryZTGfhLTM9N0S1BthUtkKHKKA2ugyO/8PzZNK1FxSqp65VA7NRZJfiFi27xjds1D8FcqEJBVfVCrq86X7XapHciqVvXCBOXpSIT49e6EJ+VEcba5k+QkXjtjz7ZKLHRSpHDDzyRibuvfyNdhKJ8wGYbG39nGZXP3+nvk34m8xJJcW3qbZqqqEa6vFQvVtKQuUEJMKxLf6ZZmHZyoEaohJAR75hrj4rN5nR5TPuS+VC4JyBg/8QsbiBbN1XXwoQfP46X4miJiDH3ob70p65l1ZfcIRmgST8VAjRF7dfsaMSxsyMfHwwIna3zC+EA1Cmbusfqa8nc9pSfX6ov04TSq0a0i3NKgfioqkgCXFWiOUYFSJ/0K3kUHCXll+B1VdlGIfVEs3CMqlKmnYno5tvQ36npmtoeNmX3BDjGgJIh+SUwcQMMrZEQdecxDDbpH/kPTvOb3dVVpmo8mesB+GLpVNTm66dTduDY3fHtSSuAn91N43pE0ljaLcMHvwFVsKKWsqJwzLCX4A5YJQl7Z8310tfntow6lJ07QRu/74lqa9RM69O3QRBtztPh3VsKNHfkAPG8THlPzoooOTX3zxxRdffPHFF1+8Ef8HiaLEkg69+7oAAAAASUVORK5CYII=;" vertex="1" parent="1">
          <mxGeometry y="200" width="182.64" height="120" as="geometry" />
        </mxCell>
        <mxCell id="65Yv2bHratZV931YRDcX-7" value="" style="shape=image;imageAspect=0;aspect=fixed;verticalLabelPosition=bottom;verticalAlign=top;image=data:image/jpeg,/9j/4AAQSkZJRgABAQAAAQABAAD/2wCEAAkGBxEQERUQDxEWFRUWGBcVGRgXGBYVFxUTGhUaFxcVFhoYHCgiGh0lHhYVIjEhJS0rOi4uGB8zODMsNygtLisBCgoKDg0OGRAQGjcmHyEtKy0tNy0tNy01LTctNSs4LystKystLTctLS83LS0rLS0tLS01LTctLS0tLS0uLSsrLf/AABEIANwA3AMBIgACEQEDEQH/xAAcAAEAAgMBAQEAAAAAAAAAAAAABgcBBAUCAwj/xABJEAABAwIDBAUHCAcFCQAAAAABAAIDBBEFEiEGMUFRBxMiYXEyQlKBkaGxFCMzcnOzwfAVNUNissPRFiU0dJIIJjZTZKPC0uH/xAAaAQEAAwADAAAAAAAAAAAAAAAAAQIDBAUG/8QAIBEBAAICAwEBAQEBAAAAAAAAAAECAxESITEEQVFxBf/aAAwDAQACEQMRAD8AvFERAREQEREBERAREQEREBERAREQEREBERAREQEREBERAREQEREBERAREQEREBERAREQEREBERAREQEREBERAREQEREBERAREQEREBERAREQEREBERAREQEREBERAREQEREBERAREQEREBERAREQERfKonZG3NI4NHMkAe9RM6H1RaLMViOrSSOYaberTVbEFQyS+VwNt/MeI4LOubHadRaNrTWY9h9kRFqqIiICIiAiIgIiICL5zztjaXPcGtG8k2AXFl2mafoIJZR6Qblb7XWPuUxEz4ibRHrvIo2zau30tNI0cxlf8CF2qCvinbmieHDjwIPIg6hTNJj1EWifG0iIqrCIiAiIgIiICIiAqm2k2iGI1jKaLSFjiM5Oj3XHaty5K1pW3aRzBHuX5+pdncQjDZW08jmZnDsDMQ5jy03A1Fi1Z5azakxC1LzS0WhM9lcJxOKolNVOOoHkWdmzdrskC/ZAGnD1713MRrTCRNG7tDfyc3i0qJYdtA6/VzB7XtNi12hB5Fb1VOZe4LzGSclcvKepj+NMuaNe7WVh1ayeNssZ0cL+HMHwNwtpV3shinyV5hl+jebg+g/me4qwwbr0fz565abiXHrbcMoiLkLCIiAiIgLWr6xsLczrm5sGjVznHc0DmvvI8NBcdABcnkFCdp9oxSM+UOGaZ/Zgj9Bp84950J9QUx/ZRO/IeNp8cjprPqwJJjrFTNN2tPAu5nvPqXJhwPFcTHWVE/yeI+TGLiw8BqfEkLqbF7JOLvl9f85O/tAO1y33XHPuU9TkREQqTE+jSshbnpaoyOGuW7mE+F3EX8SFx9m9q5qecMqey8HLmIsb8WS8x8LK81UPTDhDWzR1DRYyNObvcwtF/Gz2/wClImTULXoqoSxtkbuI9h4hfdQvorrzNR2cblpt7rfgpooTIiIgIiICIiAiIgLyGhekQVZ0o0AiqYqhunWgtd3uZax9hHsXrAZ2kW3kLs9LVLmo2yf8uRp9TgWn3kKv8PxItym+h0P4Lpf+jg3PTC0drAIaQt3DcSdD2TqzlxaP3f6KL0eIZuK3RUFdTitkwX3WV4iywoZA4BzTcHUeC+iiGAYx1burf5JOh9E/0UuC9P8AL9Nc9OUe/rSGURFyQXyqqlkTS+Rwa0byfzqe5eK2rbE3M65JNgBqXOO4BRDaPHm0xDpQJaki7IgexCPSd39+88FMQjf5Da2l2hLYb9S4RucGlz7Nu29yGt3m4BGtt6rWHFjUYi2omj61sZGVl7XJGg3H2LqY9s3iE1NJXVMhzNGcRm9y3iQ0GzABrrc6cFEsAgE0mTrjCc7SHWuGmxAzajS+W54XvwTaax6vjCNoIag5Bdkg/ZvFnW5jgR4LsKB0NJLM11PVDLVQgOZI06uHBwPEfnmpPs9iDp4ryaSNJY/6w4+BFverTXrcK8u9Oqq86RckzHyk9iAZRrveTd3ssApPiOJGQuhp3Wt9LL5sTeIB4u+CgFWP0xUNoqS7aOE3kk9Lmb8SfzuVZ6hMdyknRHROjoM7hYyvc8fV3D33U3XypadsTGxxizWgNA5ACwX1VVpERFKBERAREQEREBERBzsfw0VVNLAfPYQDyd5p9RsV+fw10T3007S1zSWkHgRxX6QUT222Ljrx1jCI52izX8HDg1/Px4LDNi5wzvXfip6OuMJDXHwKkdJigdxULhqNTFLvBLfAg2WHSPhdobt966TP8vL/AFr8+WKzqywH1bcp1Uz2QxgSt6lxu5gFj6TN3u3exU3SYxm0vZdHC8cfTSsnZ5p1F9COIWPyc/my7nz9drPz1y03Re6wStbDa5lREyaM3a8Aj+hXjGn5YHkcsv8AqIb+K9PE77h1UxMTqXAx/GOoidVkAuPYgadwHpnxtc91lqbF7MG/y2s7czznaHebfXO4elyHmjvW3j1C2aqpoXeQ3W3hr/4gKVhXsrXx5ljDgWuFwQQQdxB4FUhtlsvJhs3XQi8JJsT5Nj5jzwPC536eCvJeJo2vBa4BwOhBFwRyIVUqt2Fxt01VCzOSAxwDXauYLDQO3lvdrZdDaHEGUtQ8SVDoY3+UG+VIRrlad48orqUeDUNLUy1sMTYmxMc1zgTlL/OAF7C1raDeVq7M4fFiZfW1UWduciIOva3nG3HgNeRV+WlOO53LgQmqxe1NSRmmom+U83u8d58493tVkYFg0NHEIYG2aN54udxc48St6KJrAGtAAGgAFgByAC9qnva7KIiAiIgIiICIiAiIgIiICwVr4i2UsIgc1rzuc8FwA4mw3lV/Ss2jEmTNGWkntv6vILEjcBmtxGnFBA8fwF7sSkpg0iR8py8Ltc4lrvCxutrajDPkkz6d25ti082Hd/T1KRVVBjdNUyTxtE75MrXSNjZbQAgMzG4aNxNhxXP2oxCsxOdlPHSROmhN3BpL7WIu2R7g1oZe+lyuPbBtSaba9H0Y1UsLJopYu20PDXZmEXFwNAVzsX2Tr6NueeIdWDYvDg5oJ0Ga2oF+JCtnBsTxF0ojnw5scYaLvbKxwB3dkfh8VJKmnZKx0cjQ5rgWuB1BBFiCot81LR22wZb4Z3SVX9GW0EkGakqWu6vy2P3hl94vyO/2qx8XgM1PIxm9zTl+ta7ffZQaXYCencTSTB8Y8ljyWuaD5uYaHx09alWzcdTE0RTRgN3ghwJb+6ddfEKmCclJ4Wjr8ky5ZyXm0xrblVld1jIK+K5DPLbxHBzSOe8KV0lSyVgkjcHNcLgj871D8ew+popX1dCzrYZDeen3m53yRjv4j8jj4ftLh57UFVLRuv2oy3M0O4ix0XO9jtjqaz0s5casxDrbtidljb9JNewA4tYeJ7+HwiFftfQsHz1ZJU/uNAY09zrAXHitFgrsbLWMZ8mo28tMw5D0j7k6hPc+s1tW/F5hQUILKSM/OPGmYD434cyrOw+jZBEyGMWYwBoHcFr4Lg8NHEIYG5WjeeLjzceJW+FXazKIiAiIgIiICIiAuftBigpKaWpLc4iYX5QbF1uF+C6CjnSL+q6v7GT4INjY7aEYlSMq2xmMOLhlJzEZXFu+w5LtqCdCv6pi+vL965TtARRDbbGMTgfFHhlG2cvDi9zwcrLEWBOZoG87yozV49tNTMM81FA+NgLnBti4NG82bJfdfgUFqouDsXtNHidK2pjblNyx7CblkgtcX4ixBB5FQ7HekuelxOahFKJmsAEbYw7rXyOYxwBNyLdo7m8EFnrwyJrbkAAnfYAX8VU+JbUbSQMNXJQxMhaMzmWDixnEutJm8fwU/wBjdo2YlSsqWDKTdr2XvkkbvF+I3EdxCDuIq+2x2/miqhh2GU4qKnzr3LWXF7EAjW2pJIAXNqdo9o6ON81VRQSRta5xLSLssL5nZX6tG86cN43oLTXA2r2upMMYH1L+07yY26vfzsOA7zYL4dHu0UmI0LaqZrGuLntIZmDbNdYeUSVXew9IMaxepr6oZ44DaNjtWjtERAjkAwutzN0HYZ0o1sg6ynwSofGdQ+7zmHdliI9hKxhm1uFYpUCmrcPMVQ45R1jASXejnaA4HxAVpWXOxDA6eeSKaWJpkicHsfuc0jhcbx3FBXu0QpsNxKipaehpi2oc0OdI1z3tvIGdgl1hoeStMNtoFTvTBWtp8Vw+oeCWx2eQNSQ2a9h36LfqdpNo5x11LhzYot7WyZTKW8yHPafUAEFprKhvRvtr+lIpGyxiOohIEjRfKb3s5oOo1DgQd1t+q97a4xikMkUWGUbZ87SXPeDlZY2AJzNaPWUEvRVVV49tLSsM89HBJGwFzg3VwaN5s2S+7uKnGxm0seJ0ramNpablr2HUskFri/Eagg8iEHPpNszJij8M+SuaGAnri45TZgduyd9t6lqhNBtfNJjU2GGOPqo2Zw4B2cnIx2pzW848F46TdtJsK+TGKNjxK54fnDiQ1uXycrhr2jvQTlFV021WPVfzuHYe2ODe0zW6yRvOznt0Om4esrq9HG3Ule+WkrIhFVQ6uaLgOaHZXdl2rSDYHxQTxERAUc6Rf1XV/YyfBSNR3pDaThlWACT1L9BqTog43Qr+qYvry/euU7VGbCdIRw6iZSvoZ5C1zzmboDmcXbiO9SJvTECQP0bUe0f+qDq7Z7eSU1SzD8Pp/lFW4A2PksuLi9iCTbU6gAa3XPmp9p5WkumpIRY3aAHEC2o8l3xXI2ufNhONfpYwOlp5WgOLdch6trHC+5pGUEX3grqP6UX1oMOFUM0shFs0gDY2X85xa4/EIPn/ALPv+CqPt/5bF8cKH+9lT9l/JiWx0BQvZRzh7S35/iCL/Ns5r54TA/8AtVUvLTl6rfY2PzUQtf8AO5BZOMMDqeUHcY3g+BYVXvQA7+75f8w77tisTExeGQD0H/wlV90CxOZQSh7S09e7eCP2bOaDm9Co62sxKofrJnaLneA+SVzvaWj2BWDtz+raz/LzfduVdYjh1fgeJTVtFTOqaaoJc9jQSWkuzEHLctsSbGxFjZMd2uxWvpJ2Q4caaERSGWSbN9GGnM1mZre0RcaA7+G9BIuhVt8HYOb5f4io90ByCN9dTu0kDmG3Hsl7Xewke1SToSB/RMd/Tl/jK4O2OzNbh9ecXwlnWB1zLEBmNz5fZGrmu36ag6+AW0iq6Hpppg209JUMk3FoDSL8dXFp9y+mD7Y4liVXCKajfBSNeHSSP3vjHDM4ActG3Peg0+k0f33hX12ffhWyqq6R4XOxrCyGuIDmXIBIHz43ngrVCCpejNuXHMUa3dmkP/f/APq722W3ktPUtw/D6f5RVOANjfKy4zAEC19NTqAARquL0cwObjmKOLSATJYkEA/P8CtHax82EY2cWdA6WnmaGkt835trHC/mkFgIvvGiDr1FNtPKxxfLSQgtN2gBxtY3Hku19a8dAH+BnH/UH7tiT9J761rocKoZpZCCC6QBsbBbVzi0n3kL10CQvZRTh7S09eTYgj9mzmg1MG/4rqfsf5cSdOg7eH/av+Ma+mEQOG1NS7KcpiOtjY/Nxbis9OEL3Pw/I1zrSvvYE21j32QWmqmwJobtZVgaXiv7Y4XH3lW0qqweF39qqp+V2Uxb7G30MO4+pBaqIiAiIgIiIMOF9CsMjDdGgDw0XpEGEWUQYWURBBNrNs66gqixmGvqKfK0iRgeDmI7QJDXDQ+CjeN7VYnjELqKjwyWFsvZfJJcNDL6i5a0C9jffpfRW+iDkbJ4I2go4aRpv1bbE83k5nn1uJXXREHh0QJuQPYF6WUQEWEQZWHNB3rKIPLGBos0ADu0XpEQEREBERAREQEREBERAREQEREBERAREQEREBERAREQEREBERAREQEREBERAREQEREBERAREQEREBERAREQEREBERAREQEREBERAREQEREBERAREQEREBERAREQEREBERAREQEREBERAREQEREBERAREQf/2Q==;" vertex="1" parent="1">
          <mxGeometry x="530" y="190" width="130" height="130" as="geometry" />
        </mxCell>
        <mxCell id="65Yv2bHratZV931YRDcX-8" value="" style="shape=flexArrow;endArrow=classic;html=1;rounded=0;" edge="1" parent="1">
          <mxGeometry width="50" height="50" relative="1" as="geometry">
            <mxPoint x="460" y="259.5" as="sourcePoint" />
            <mxPoint x="520" y="259.5" as="targetPoint" />
          </mxGeometry>
        </mxCell>
        <mxCell id="65Yv2bHratZV931YRDcX-10" value="" style="shape=flexArrow;endArrow=classic;html=1;rounded=0;" edge="1" parent="1">
          <mxGeometry width="50" height="50" relative="1" as="geometry">
            <mxPoint x="663.5899999999999" y="254.5" as="sourcePoint" />
            <mxPoint x="723.5899999999999" y="254.5" as="targetPoint" />
          </mxGeometry>
        </mxCell>
        <mxCell id="65Yv2bHratZV931YRDcX-11" value="" style="shape=flexArrow;endArrow=classic;html=1;rounded=0;" edge="1" parent="1">
          <mxGeometry width="50" height="50" relative="1" as="geometry">
            <mxPoint x="793.09" y="180" as="sourcePoint" />
            <mxPoint x="793.09" y="130" as="targetPoint" />
          </mxGeometry>
        </mxCell>
        <mxCell id="65Yv2bHratZV931YRDcX-12" value="" style="shape=flexArrow;endArrow=classic;html=1;rounded=0;" edge="1" parent="1">
          <mxGeometry width="50" height="50" relative="1" as="geometry">
            <mxPoint x="190" y="259.5" as="sourcePoint" />
            <mxPoint x="250" y="259.5" as="targetPoint" />
          </mxGeometry>
        </mxCell>
        <mxCell id="65Yv2bHratZV931YRDcX-13" value="" style="shape=flexArrow;endArrow=classic;html=1;rounded=0;" edge="1" parent="1">
          <mxGeometry width="50" height="50" relative="1" as="geometry">
            <mxPoint x="380" y="320" as="sourcePoint" />
            <mxPoint x="720" y="400" as="targetPoint" />
          </mxGeometry>
        </mxCell>
      </root>
    </mxGraphModel>
  </diagram>
</mxfile>
